<mxfile host="app.diagrams.net" modified="2021-10-06T10:01:34.597Z" agent="5.0 (Windows NT 10.0; Win64; x64) AppleWebKit/537.36 (KHTML, like Gecko) Chrome/94.0.4606.71 Safari/537.36" etag="Jei1HSDxlZmUg-idGvhY" version="15.4.3" type="github">
  <diagram name="Page-1" id="2cc2dc42-3aac-f2a9-1cec-7a8b7cbee084">
    <mxGraphModel dx="1194" dy="624" grid="1" gridSize="10" guides="1" tooltips="1" connect="1" arrows="1" fold="1" page="1" pageScale="1" pageWidth="1100" pageHeight="850" background="none" math="0" shadow="0">
      <root>
        <mxCell id="0" />
        <mxCell id="1" parent="0" />
        <mxCell id="r0hiOVYhxZ1u2W5lZPDj-2" value="" style="whiteSpace=wrap;html=1;aspect=fixed;" vertex="1" parent="1">
          <mxGeometry x="40" y="40" width="1040" height="1040" as="geometry" />
        </mxCell>
        <mxCell id="r0hiOVYhxZ1u2W5lZPDj-7" value="" style="rounded=0;whiteSpace=wrap;html=1;" vertex="1" parent="1">
          <mxGeometry x="40" y="40" width="1040" height="60" as="geometry" />
        </mxCell>
        <mxCell id="r0hiOVYhxZ1u2W5lZPDj-8" value="&lt;font style=&quot;font-size: 14px&quot;&gt;LOGO&lt;/font&gt;" style="ellipse;whiteSpace=wrap;html=1;" vertex="1" parent="1">
          <mxGeometry x="120" y="52.5" width="70" height="35" as="geometry" />
        </mxCell>
        <mxCell id="r0hiOVYhxZ1u2W5lZPDj-9" value="&lt;font style=&quot;font-size: 17px&quot;&gt;Search Bar&lt;/font&gt;" style="rounded=1;whiteSpace=wrap;html=1;" vertex="1" parent="1">
          <mxGeometry x="250" y="57.5" width="300" height="25" as="geometry" />
        </mxCell>
        <mxCell id="r0hiOVYhxZ1u2W5lZPDj-10" value="&lt;font style=&quot;font-size: 15px&quot;&gt;Dropdown&amp;nbsp; &amp;nbsp;&lt;/font&gt;" style="rounded=1;whiteSpace=wrap;html=1;align=left;" vertex="1" parent="1">
          <mxGeometry x="800" y="50" width="100" height="40" as="geometry" />
        </mxCell>
        <mxCell id="r0hiOVYhxZ1u2W5lZPDj-11" value="" style="shape=singleArrow;direction=south;whiteSpace=wrap;html=1;align=left;" vertex="1" parent="1">
          <mxGeometry x="880" y="60" width="10" height="25" as="geometry" />
        </mxCell>
        <mxCell id="r0hiOVYhxZ1u2W5lZPDj-12" value="&lt;font style=&quot;font-size: 18px&quot;&gt;Sign in&lt;/font&gt;" style="rounded=1;whiteSpace=wrap;html=1;align=center;" vertex="1" parent="1">
          <mxGeometry x="920" y="55" width="80" height="30" as="geometry" />
        </mxCell>
        <mxCell id="r0hiOVYhxZ1u2W5lZPDj-13" value="" style="shape=image;html=1;verticalAlign=top;verticalLabelPosition=bottom;labelBackgroundColor=#ffffff;imageAspect=0;aspect=fixed;image=https://cdn4.iconfinder.com/data/icons/basic-user-interface-elements/700/menu-lines-list-128.png;fontSize=14;" vertex="1" parent="1">
          <mxGeometry x="1030" y="55" width="30" height="30" as="geometry" />
        </mxCell>
        <mxCell id="r0hiOVYhxZ1u2W5lZPDj-15" value="" style="rounded=0;whiteSpace=wrap;html=1;fontSize=14;align=center;" vertex="1" parent="1">
          <mxGeometry x="40" y="100" width="1040" height="20" as="geometry" />
        </mxCell>
        <mxCell id="r0hiOVYhxZ1u2W5lZPDj-16" value="Text" style="rounded=1;whiteSpace=wrap;html=1;fontSize=14;align=center;" vertex="1" parent="1">
          <mxGeometry x="125" y="100" width="60" height="20" as="geometry" />
        </mxCell>
        <mxCell id="r0hiOVYhxZ1u2W5lZPDj-17" value="&lt;span&gt;Text&lt;/span&gt;" style="rounded=1;whiteSpace=wrap;html=1;fontSize=14;align=center;" vertex="1" parent="1">
          <mxGeometry x="485" y="100" width="60" height="20" as="geometry" />
        </mxCell>
        <mxCell id="r0hiOVYhxZ1u2W5lZPDj-18" value="&lt;span&gt;Text&lt;/span&gt;" style="rounded=1;whiteSpace=wrap;html=1;fontSize=14;align=center;" vertex="1" parent="1">
          <mxGeometry x="425" y="100" width="60" height="20" as="geometry" />
        </mxCell>
        <mxCell id="r0hiOVYhxZ1u2W5lZPDj-19" value="&lt;span&gt;Text&lt;/span&gt;" style="rounded=1;whiteSpace=wrap;html=1;fontSize=14;align=center;" vertex="1" parent="1">
          <mxGeometry x="365" y="100" width="60" height="20" as="geometry" />
        </mxCell>
        <mxCell id="r0hiOVYhxZ1u2W5lZPDj-20" value="&lt;span&gt;Text&lt;/span&gt;" style="rounded=1;whiteSpace=wrap;html=1;fontSize=14;align=center;" vertex="1" parent="1">
          <mxGeometry x="305" y="100" width="60" height="20" as="geometry" />
        </mxCell>
        <mxCell id="r0hiOVYhxZ1u2W5lZPDj-21" value="&lt;span&gt;Text&lt;/span&gt;" style="rounded=1;whiteSpace=wrap;html=1;fontSize=14;align=center;" vertex="1" parent="1">
          <mxGeometry x="245" y="100" width="60" height="20" as="geometry" />
        </mxCell>
        <mxCell id="r0hiOVYhxZ1u2W5lZPDj-22" value="&lt;span&gt;Text&lt;/span&gt;" style="rounded=1;whiteSpace=wrap;html=1;fontSize=14;align=center;" vertex="1" parent="1">
          <mxGeometry x="185" y="100" width="60" height="20" as="geometry" />
        </mxCell>
        <mxCell id="r0hiOVYhxZ1u2W5lZPDj-23" value="&lt;span&gt;Text&lt;/span&gt;" style="rounded=1;whiteSpace=wrap;html=1;fontSize=14;align=center;" vertex="1" parent="1">
          <mxGeometry x="830" y="100" width="60" height="20" as="geometry" />
        </mxCell>
        <mxCell id="r0hiOVYhxZ1u2W5lZPDj-24" value="&lt;span style=&quot;color: rgb(0 , 0 , 0)&quot;&gt;Text&lt;/span&gt;" style="rounded=1;whiteSpace=wrap;html=1;fontSize=14;align=center;" vertex="1" parent="1">
          <mxGeometry x="890" y="100" width="60" height="20" as="geometry" />
        </mxCell>
        <mxCell id="r0hiOVYhxZ1u2W5lZPDj-25" value="&lt;span&gt;Text&lt;/span&gt;" style="rounded=1;whiteSpace=wrap;html=1;fontSize=14;align=center;" vertex="1" parent="1">
          <mxGeometry x="950" y="100" width="60" height="20" as="geometry" />
        </mxCell>
        <mxCell id="r0hiOVYhxZ1u2W5lZPDj-26" value="&lt;span&gt;Text&lt;/span&gt;" style="rounded=1;whiteSpace=wrap;html=1;fontSize=14;align=center;" vertex="1" parent="1">
          <mxGeometry x="1010" y="100" width="60" height="20" as="geometry" />
        </mxCell>
        <mxCell id="r0hiOVYhxZ1u2W5lZPDj-33" value="&lt;font style=&quot;font-size: 16px&quot;&gt;Slides&lt;/font&gt;" style="rounded=0;whiteSpace=wrap;html=1;fontSize=14;align=center;" vertex="1" parent="1">
          <mxGeometry x="60" y="140" width="1000" height="280" as="geometry" />
        </mxCell>
        <mxCell id="r0hiOVYhxZ1u2W5lZPDj-35" value="" style="html=1;shadow=0;dashed=0;align=center;verticalAlign=middle;shape=mxgraph.arrows2.arrow;dy=0.6;dx=40;notch=0;fontSize=16;" vertex="1" parent="1">
          <mxGeometry x="630" y="262.5" width="100" height="35" as="geometry" />
        </mxCell>
        <mxCell id="r0hiOVYhxZ1u2W5lZPDj-36" value="" style="html=1;shadow=0;dashed=0;align=center;verticalAlign=middle;shape=mxgraph.arrows2.arrow;dy=0.6;dx=40;flipH=1;notch=0;fontSize=16;" vertex="1" parent="1">
          <mxGeometry x="385" y="262.5" width="100" height="35" as="geometry" />
        </mxCell>
        <mxCell id="r0hiOVYhxZ1u2W5lZPDj-37" value="" style="rounded=0;whiteSpace=wrap;html=1;fontSize=16;align=center;" vertex="1" parent="1">
          <mxGeometry x="60" y="460" width="1000" height="600" as="geometry" />
        </mxCell>
        <mxCell id="r0hiOVYhxZ1u2W5lZPDj-38" value="Text" style="rounded=0;whiteSpace=wrap;html=1;fontSize=16;align=center;" vertex="1" parent="1">
          <mxGeometry x="60" y="460" width="150" height="40" as="geometry" />
        </mxCell>
        <mxCell id="r0hiOVYhxZ1u2W5lZPDj-39" value="Text&amp;nbsp;" style="rounded=0;whiteSpace=wrap;html=1;fontSize=16;align=center;" vertex="1" parent="1">
          <mxGeometry x="970" y="460" width="90" height="30" as="geometry" />
        </mxCell>
        <mxCell id="r0hiOVYhxZ1u2W5lZPDj-41" value="" style="rounded=0;whiteSpace=wrap;html=1;fontSize=16;align=center;" vertex="1" parent="1">
          <mxGeometry x="310" y="550" width="120" height="240" as="geometry" />
        </mxCell>
        <mxCell id="r0hiOVYhxZ1u2W5lZPDj-42" value="" style="rounded=0;whiteSpace=wrap;html=1;fontSize=16;align=center;" vertex="1" parent="1">
          <mxGeometry x="500" y="550" width="120" height="240" as="geometry" />
        </mxCell>
        <mxCell id="r0hiOVYhxZ1u2W5lZPDj-43" value="" style="rounded=0;whiteSpace=wrap;html=1;fontSize=16;align=center;" vertex="1" parent="1">
          <mxGeometry x="700" y="550" width="120" height="240" as="geometry" />
        </mxCell>
        <mxCell id="r0hiOVYhxZ1u2W5lZPDj-44" value="" style="rounded=0;whiteSpace=wrap;html=1;fontSize=16;align=center;" vertex="1" parent="1">
          <mxGeometry x="890" y="550" width="120" height="240" as="geometry" />
        </mxCell>
        <mxCell id="r0hiOVYhxZ1u2W5lZPDj-45" value="" style="rounded=0;whiteSpace=wrap;html=1;fontSize=16;align=center;" vertex="1" parent="1">
          <mxGeometry x="130" y="550" width="120" height="240" as="geometry" />
        </mxCell>
        <mxCell id="r0hiOVYhxZ1u2W5lZPDj-46" value="Text" style="rounded=0;whiteSpace=wrap;html=1;fontSize=16;align=center;" vertex="1" parent="1">
          <mxGeometry x="130" y="730" width="120" height="60" as="geometry" />
        </mxCell>
        <mxCell id="r0hiOVYhxZ1u2W5lZPDj-47" value="&lt;span&gt;Text&lt;/span&gt;" style="rounded=0;whiteSpace=wrap;html=1;fontSize=16;align=center;" vertex="1" parent="1">
          <mxGeometry x="310" y="730" width="120" height="60" as="geometry" />
        </mxCell>
        <mxCell id="r0hiOVYhxZ1u2W5lZPDj-48" value="&lt;span&gt;Text&lt;/span&gt;" style="rounded=0;whiteSpace=wrap;html=1;fontSize=16;align=center;" vertex="1" parent="1">
          <mxGeometry x="890" y="730" width="120" height="60" as="geometry" />
        </mxCell>
        <mxCell id="r0hiOVYhxZ1u2W5lZPDj-49" value="&lt;span&gt;Text&lt;/span&gt;" style="rounded=0;whiteSpace=wrap;html=1;fontSize=16;align=center;" vertex="1" parent="1">
          <mxGeometry x="700" y="730" width="120" height="60" as="geometry" />
        </mxCell>
        <mxCell id="r0hiOVYhxZ1u2W5lZPDj-50" value="&lt;span&gt;Text&lt;/span&gt;" style="rounded=0;whiteSpace=wrap;html=1;fontSize=16;align=center;" vertex="1" parent="1">
          <mxGeometry x="500" y="730" width="120" height="60" as="geometry" />
        </mxCell>
        <mxCell id="r0hiOVYhxZ1u2W5lZPDj-51" value="" style="shape=mxgraph.signs.people.pedestrian;html=1;pointerEvents=1;fillColor=#000000;strokeColor=none;verticalLabelPosition=bottom;verticalAlign=top;align=center;sketch=0;fontSize=16;" vertex="1" parent="1">
          <mxGeometry x="150" y="590" width="80" height="99" as="geometry" />
        </mxCell>
        <mxCell id="r0hiOVYhxZ1u2W5lZPDj-52" value="" style="shape=mxgraph.signs.people.pedestrian;html=1;pointerEvents=1;fillColor=#000000;strokeColor=none;verticalLabelPosition=bottom;verticalAlign=top;align=center;sketch=0;fontSize=16;" vertex="1" parent="1">
          <mxGeometry x="330" y="590" width="80" height="99" as="geometry" />
        </mxCell>
        <mxCell id="r0hiOVYhxZ1u2W5lZPDj-55" value="" style="shape=mxgraph.signs.people.pedestrian;html=1;pointerEvents=1;fillColor=#000000;strokeColor=none;verticalLabelPosition=bottom;verticalAlign=top;align=center;sketch=0;fontSize=16;" vertex="1" parent="1">
          <mxGeometry x="910" y="590" width="80" height="99" as="geometry" />
        </mxCell>
        <mxCell id="r0hiOVYhxZ1u2W5lZPDj-56" value="" style="shape=mxgraph.signs.people.pedestrian;html=1;pointerEvents=1;fillColor=#000000;strokeColor=none;verticalLabelPosition=bottom;verticalAlign=top;align=center;sketch=0;fontSize=16;" vertex="1" parent="1">
          <mxGeometry x="710" y="590" width="80" height="99" as="geometry" />
        </mxCell>
        <mxCell id="r0hiOVYhxZ1u2W5lZPDj-57" value="" style="shape=mxgraph.signs.people.pedestrian;html=1;pointerEvents=1;fillColor=#000000;strokeColor=none;verticalLabelPosition=bottom;verticalAlign=top;align=center;sketch=0;fontSize=16;" vertex="1" parent="1">
          <mxGeometry x="520" y="590" width="80" height="99" as="geometry" />
        </mxCell>
        <mxCell id="r0hiOVYhxZ1u2W5lZPDj-58" value="&lt;span&gt;&lt;br&gt;Text&lt;/span&gt;" style="rounded=0;whiteSpace=wrap;html=1;fontSize=16;align=center;" vertex="1" parent="1">
          <mxGeometry x="130" y="820" width="120" height="60" as="geometry" />
        </mxCell>
        <mxCell id="r0hiOVYhxZ1u2W5lZPDj-59" value="&lt;br&gt;Text" style="rounded=0;whiteSpace=wrap;html=1;fontSize=16;align=center;" vertex="1" parent="1">
          <mxGeometry x="890" y="820" width="120" height="60" as="geometry" />
        </mxCell>
        <mxCell id="r0hiOVYhxZ1u2W5lZPDj-60" value="&lt;br&gt;Text" style="rounded=0;whiteSpace=wrap;html=1;fontSize=16;align=center;" vertex="1" parent="1">
          <mxGeometry x="700" y="820" width="120" height="60" as="geometry" />
        </mxCell>
        <mxCell id="r0hiOVYhxZ1u2W5lZPDj-61" value="&lt;br&gt;Text" style="rounded=0;whiteSpace=wrap;html=1;fontSize=16;align=center;" vertex="1" parent="1">
          <mxGeometry x="500" y="820" width="120" height="60" as="geometry" />
        </mxCell>
        <mxCell id="r0hiOVYhxZ1u2W5lZPDj-62" value="&lt;br&gt;Text" style="rounded=0;whiteSpace=wrap;html=1;fontSize=16;align=center;" vertex="1" parent="1">
          <mxGeometry x="310" y="820" width="120" height="60" as="geometry" />
        </mxCell>
        <mxCell id="r0hiOVYhxZ1u2W5lZPDj-63" value="&lt;span&gt;Text&lt;/span&gt;" style="rounded=0;whiteSpace=wrap;html=1;fontSize=16;align=center;" vertex="1" parent="1">
          <mxGeometry x="130" y="820" width="120" height="30" as="geometry" />
        </mxCell>
        <mxCell id="r0hiOVYhxZ1u2W5lZPDj-64" value="&lt;span&gt;Text&lt;/span&gt;" style="rounded=0;whiteSpace=wrap;html=1;fontSize=16;align=center;" vertex="1" parent="1">
          <mxGeometry x="310" y="820" width="120" height="30" as="geometry" />
        </mxCell>
        <mxCell id="r0hiOVYhxZ1u2W5lZPDj-65" value="&lt;span&gt;Text&lt;/span&gt;" style="rounded=0;whiteSpace=wrap;html=1;fontSize=16;align=center;" vertex="1" parent="1">
          <mxGeometry x="890" y="820" width="120" height="30" as="geometry" />
        </mxCell>
        <mxCell id="r0hiOVYhxZ1u2W5lZPDj-66" value="&lt;span&gt;Text&lt;/span&gt;" style="rounded=0;whiteSpace=wrap;html=1;fontSize=16;align=center;" vertex="1" parent="1">
          <mxGeometry x="700" y="820" width="120" height="30" as="geometry" />
        </mxCell>
        <mxCell id="r0hiOVYhxZ1u2W5lZPDj-67" value="&lt;span&gt;Text&lt;/span&gt;" style="rounded=0;whiteSpace=wrap;html=1;fontSize=16;align=center;" vertex="1" parent="1">
          <mxGeometry x="500" y="820" width="120" height="30" as="geometry" />
        </mxCell>
        <mxCell id="r0hiOVYhxZ1u2W5lZPDj-68" value="Advertisement / New release (feature)" style="rounded=0;whiteSpace=wrap;html=1;fontSize=16;align=center;" vertex="1" parent="1">
          <mxGeometry x="60" y="920" width="1000" height="60" as="geometry" />
        </mxCell>
      </root>
    </mxGraphModel>
  </diagram>
</mxfile>
